<?xml version="1.0" encoding="UTF-8"?>
<svg version="1.1" xmlns="http://www.w3.org/2000/svg" width="471" height="600">
<path d="M0 0 C0.82845428 -0.00571014 1.65690857 -0.01142029 2.51046753 -0.01730347 C3.41597855 -0.01842133 4.32148956 -0.01953918 5.25444031 -0.02069092 C6.68904602 -0.02813828 6.68904602 -0.02813828 8.15263367 -0.03573608 C11.32158626 -0.0503598 14.49048879 -0.05716016 17.6594696 -0.06268311 C19.86041261 -0.06843448 22.06135561 -0.07419222 24.26229858 -0.07995605 C28.87996148 -0.09046671 33.49760697 -0.09630893 38.11528015 -0.09979248 C44.03023598 -0.10527663 49.94496154 -0.12930284 55.85984516 -0.15776443 C60.40747753 -0.17639468 64.95505448 -0.18159663 69.50272179 -0.18312836 C71.68319647 -0.18615464 73.86367019 -0.19418235 76.04410744 -0.20731354 C79.09616704 -0.22438142 82.14766475 -0.22249178 85.19975281 -0.21600342 C86.09919113 -0.2252182 86.99862946 -0.23443298 87.92532349 -0.243927 C93.84338335 -0.20454591 98.03926136 0.75539887 102.73368835 4.64044189 C104.89176735 7.36643642 105.04914328 9.99836179 105.06835938 13.33314514 C105.07551468 14.18684189 105.08266998 15.04053864 105.09004211 15.92010498 C105.09273102 16.85366821 105.09541992 17.78723145 105.09819031 18.74908447 C105.10476151 19.73474899 105.1113327 20.72041351 105.11810303 21.73594666 C105.13783617 25.00228957 105.14949805 28.26858653 105.1594696 31.53497314 C105.16354513 32.65005438 105.16762066 33.76513561 105.17181969 34.91400719 C105.19267944 40.81476023 105.20698219 46.71549002 105.21635437 52.61627197 C105.22742492 58.71289388 105.26183288 64.80915141 105.30152607 70.90564442 C105.32765975 75.59224633 105.33604329 80.27876094 105.33963585 84.96542931 C105.34450936 87.21290234 105.35614497 89.46037127 105.37467384 91.70777321 C105.39899788 94.85334878 105.39811239 97.99797508 105.39115906 101.14361572 C105.40396912 102.07110626 105.41677917 102.9985968 105.42997742 103.95419312 C105.38542796 109.4855299 104.74572818 112.83440178 100.92118835 117.14044189 C98.06123447 118.88500694 95.93154382 119.3919252 92.60150146 119.40113831 C91.74498489 119.40822311 90.88846832 119.41530792 90.0059967 119.42260742 C89.0744577 119.42013 88.1429187 119.41765259 87.18315125 119.4151001 C86.19573441 119.42021103 85.20831757 119.42532196 84.190979 119.43058777 C80.92520597 119.44449398 77.65964373 119.44352624 74.3938446 119.44122314 C72.12467368 119.44510943 69.85550348 119.44944396 67.58633423 119.45420837 C62.82919456 119.46167275 58.07212911 119.46137765 53.31498718 119.45611572 C47.21722093 119.45032004 41.11975832 119.46725363 35.02204227 119.4904604 C30.33547182 119.50518804 25.64897467 119.50607076 20.96238518 119.50295067 C18.71410457 119.50346434 16.46581991 119.50871065 14.21756172 119.51876259 C11.07438006 119.531091 7.93179206 119.52435666 4.78862 119.51275635 C3.85910522 119.52040009 2.92959045 119.52804382 1.97190857 119.53591919 C-3.9391872 119.48767001 -7.26116867 118.55556445 -11.82881165 114.64044189 C-14.0548823 111.96915711 -14.20563788 109.35073294 -14.21925354 106.02366638 C-14.22496368 105.18679794 -14.23067383 104.3499295 -14.23655701 103.48770142 C-14.23767487 102.57283966 -14.23879272 101.65797791 -14.23994446 100.71539307 C-14.24490936 99.74923569 -14.24987427 98.78307831 -14.25498962 97.78764343 C-14.26961391 94.5862253 -14.27641378 91.38485672 -14.28193665 88.18341064 C-14.28768797 85.96004739 -14.2934457 83.73668415 -14.29920959 81.51332092 C-14.3097204 76.8485796 -14.31556252 72.18385551 -14.31904602 67.519104 C-14.32453026 61.54361504 -14.34855663 55.568354 -14.37701797 49.59293652 C-14.39564746 44.99898108 -14.40085013 40.40508049 -14.4023819 35.81109047 C-14.40540834 33.60828722 -14.41343658 31.40548493 -14.42656708 29.20271873 C-14.44363341 26.11952788 -14.44174569 23.03689332 -14.43525696 19.95367432 C-14.44447174 19.04488525 -14.45368652 18.13609619 -14.46318054 17.19976807 C-14.42951435 12.08966033 -13.91804846 8.56913342 -11.07881165 4.14044189 C-7.64779975 1.03108737 -4.58051081 0.01893738 0 0 Z " fill="#34972F" transform="translate(187.0788116455078,448.85955810546875)"/>
<path d="M0 0 C1.4813443 -0.00788544 1.4813443 -0.00788544 2.99261475 -0.01593018 C6.25305046 -0.02912072 9.51299692 -0.02039521 12.7734375 -0.01025391 C15.04117934 -0.01227491 17.30892054 -0.01518656 19.57666016 -0.01895142 C24.32786246 -0.0233735 29.0788955 -0.01694728 33.83007812 -0.00292969 C39.91998773 0.01416194 46.00950069 0.00432017 52.09939575 -0.01364708 C56.7816873 -0.02448792 61.46388482 -0.02103715 66.1461792 -0.0132637 C68.39166307 -0.01126254 70.63715549 -0.01371802 72.88262939 -0.02070236 C76.02094129 -0.02832158 79.15861093 -0.01670549 82.296875 0 C83.68879059 -0.00910904 83.68879059 -0.00910904 85.10882568 -0.0184021 C91.01132099 0.03980108 94.33738899 0.97871344 98.8984375 4.88818359 C101.12450815 7.55946838 101.27526373 10.17789255 101.28887939 13.50495911 C101.29458954 14.34182755 101.30029968 15.17869598 101.30618286 16.04092407 C101.30785965 17.41321671 101.30785965 17.41321671 101.30957031 18.81323242 C101.31701767 20.26246849 101.31701767 20.26246849 101.32461548 21.74098206 C101.33923977 24.94240019 101.34603964 28.14376877 101.3515625 31.34521484 C101.35731382 33.5685781 101.36307156 35.79194134 101.36883545 38.01530457 C101.37934626 42.68004589 101.38518838 47.34476998 101.38867188 52.00952148 C101.39415612 57.98501045 101.41818249 63.96027149 101.44664383 69.93568897 C101.46527332 74.52964441 101.47047599 79.12354499 101.47200775 83.71753502 C101.4750342 85.92033827 101.48306243 88.12314056 101.49619293 90.32590675 C101.51325926 93.40909761 101.51137155 96.49173216 101.50488281 99.57495117 C101.5140976 100.48374023 101.52331238 101.3925293 101.5328064 102.32885742 C101.49914021 107.43896515 100.98767432 110.95949207 98.1484375 115.38818359 C94.71742561 118.49753812 91.65013667 119.50968811 87.06962585 119.52862549 C86.24117157 119.53433563 85.41271729 119.54004578 84.55915833 119.54592896 C83.65364731 119.54704681 82.74813629 119.54816467 81.81518555 119.54931641 C80.85878174 119.55428131 79.90237793 119.55924622 78.91699219 119.56436157 C75.74803959 119.57898529 72.57913706 119.58578564 69.41015625 119.59130859 C67.20921324 119.59705997 65.00827025 119.60281771 62.80732727 119.60858154 C58.18966437 119.6190922 53.57201889 119.62493441 48.9543457 119.62841797 C43.03938988 119.63390211 37.12466431 119.65792833 31.20978069 119.68638992 C26.66214833 119.70502017 22.11457137 119.71022212 17.56690407 119.71175385 C15.38642938 119.71478013 13.20595566 119.72280784 11.02551842 119.73593903 C7.97345881 119.75300691 4.92196111 119.75111727 1.86987305 119.74462891 C0.97043472 119.75384369 0.0709964 119.76305847 -0.85569763 119.77255249 C-6.7737575 119.7331714 -10.96963551 118.77322662 -15.6640625 114.88818359 C-17.82522846 112.15828975 -17.97863523 109.52770793 -17.99200439 106.18875122 C-18.00056961 104.90603836 -18.00056961 104.90603836 -18.00930786 103.59741211 C-18.01042572 102.66227783 -18.01154358 101.72714355 -18.01269531 100.76367188 C-18.01766022 99.77640106 -18.02262512 98.78913025 -18.02774048 97.77194214 C-18.04236453 94.50078641 -18.04916421 91.22967916 -18.0546875 87.95849609 C-18.06043835 85.68789671 -18.06619609 83.41729735 -18.07196045 81.146698 C-18.08247085 76.38360365 -18.0883134 71.62052619 -18.09179688 66.85742188 C-18.09728443 60.75180029 -18.12131806 54.64640139 -18.14976883 48.54084969 C-18.16838394 43.84999945 -18.17360019 39.159203 -18.17513275 34.46831894 C-18.17816189 32.21724097 -18.18619916 29.966164 -18.19931793 27.71512222 C-18.21635602 24.56707001 -18.21450358 21.41956388 -18.20800781 18.27148438 C-18.2172226 17.34039856 -18.22643738 16.40931274 -18.2359314 15.45001221 C-18.20487044 10.64915722 -18.13171135 7.18057961 -14.8515625 3.38818359 C-10.3793534 -0.47196897 -5.60984692 -0.03671222 0 0 Z " fill="#34972F" transform="translate(331.8515625,26.61181640625)"/>
<path d="M0 0 C0.85514191 -0.00571014 1.71028381 -0.01142029 2.59133911 -0.01730347 C3.52647339 -0.01842133 4.46160767 -0.01953918 5.42507935 -0.02069092 C6.41235016 -0.02565582 7.39962097 -0.03062073 8.41680908 -0.03573608 C11.68796481 -0.05036013 14.95907206 -0.05715981 18.23025513 -0.06268311 C20.50085451 -0.06843395 22.77145387 -0.0741917 25.04205322 -0.07995605 C29.80514757 -0.09046646 34.56822503 -0.09630901 39.33132935 -0.09979248 C45.43695093 -0.10528004 51.54234983 -0.12931366 57.64790154 -0.15776443 C62.33875177 -0.17637954 67.02954822 -0.1815958 71.72043228 -0.18312836 C73.97151025 -0.18615749 76.22258722 -0.19419477 78.473629 -0.20731354 C81.62168121 -0.22435163 84.76918734 -0.22249919 87.91726685 -0.21600342 C89.31389557 -0.22982559 89.31389557 -0.22982559 90.73873901 -0.243927 C95.539594 -0.21286605 99.00817161 -0.13970695 102.80056763 3.14044189 C106.66072019 7.612651 106.22546344 12.38215748 106.18875122 17.99200439 C106.19400818 18.97956726 106.19926514 19.96713013 106.2046814 20.98461914 C106.21787194 24.24505486 106.20914643 27.50500131 106.19900513 30.76544189 C106.20102613 33.03318373 106.20393778 35.30092494 106.20770264 37.56866455 C106.21212472 42.31986686 106.2056985 47.07089989 106.19168091 51.82208252 C106.17458928 57.91199213 106.18443106 64.00150509 106.2023983 70.09140015 C106.21323915 74.77369169 106.20978837 79.45588921 106.20201492 84.13818359 C106.20001376 86.38366747 106.20246924 88.62915988 106.20945358 90.87463379 C106.2170728 94.01294568 106.20545671 97.15061533 106.18875122 100.28887939 C106.19482391 101.21682312 106.20089661 102.14476685 106.20715332 103.10083008 C106.15942637 107.94091114 105.95359726 111.21347642 102.80056763 115.14044189 C99.30849393 118.19600638 96.32715868 119.2618435 91.72175598 119.28088379 C90.8933017 119.28659393 90.06484741 119.29230408 89.21128845 119.29818726 C88.30577744 119.29930511 87.40026642 119.30042297 86.46731567 119.30157471 C85.51091187 119.30653961 84.55450806 119.31150452 83.56912231 119.31661987 C80.40016972 119.33124359 77.23126719 119.33804395 74.06228638 119.34356689 C71.86134337 119.34931827 69.66040037 119.35507601 67.4594574 119.36083984 C62.8417945 119.3713505 58.22414901 119.37719271 53.60647583 119.38067627 C47.69152 119.38616042 41.77679444 119.41018663 35.86191082 119.43864822 C31.31427845 119.45727847 26.7667015 119.46248042 22.21903419 119.46401215 C20.03855951 119.46703843 17.85808579 119.47506614 15.67764854 119.48819733 C12.62558894 119.50526521 9.57409123 119.50337557 6.52200317 119.49688721 C5.62256485 119.50610199 4.72312653 119.51531677 3.7964325 119.52481079 C-1.29146716 119.49095391 -4.78799 118.96214457 -9.19943237 116.14044189 C-12.32345681 112.69324252 -13.32108416 109.6166124 -13.33987427 105.01693726 C-13.34558441 104.17862366 -13.35129456 103.34031006 -13.35717773 102.47659302 C-13.35829559 101.56016022 -13.35941345 100.64372742 -13.36056519 99.69952393 C-13.36553009 98.73176025 -13.370495 97.76399658 -13.37561035 96.76690674 C-13.39023327 93.5606821 -13.3970339 90.35450692 -13.40255737 87.14825439 C-13.40830832 84.92249551 -13.41406606 82.69673664 -13.41983032 80.47097778 C-13.43034041 75.80204029 -13.43618316 71.13312002 -13.43966675 66.46417236 C-13.44515418 60.47961711 -13.46918766 54.49528907 -13.4976387 48.51080513 C-13.516255 43.91260104 -13.52147013 39.31445182 -13.52300262 34.71621323 C-13.5260315 32.50979239 -13.53406791 30.30337258 -13.54718781 28.09698868 C-13.56422839 25.01119905 -13.56237286 21.92596642 -13.55587769 18.84014893 C-13.56509247 17.92776459 -13.57430725 17.01538025 -13.58380127 16.0753479 C-13.54511189 10.21233202 -12.58214798 6.92027676 -8.69943237 2.39044189 C-6.00300076 0.14341555 -3.35685794 0.01344084 0 0 Z " fill="#34972F" transform="translate(186.19943237304688,26.85955810546875)"/>
<path d="M0 0 C1.44967415 -0.0076664 1.44967415 -0.0076664 2.92863464 -0.01548767 C6.11923436 -0.02937305 9.30961782 -0.02842773 12.50024414 -0.02612305 C14.72074972 -0.03001043 16.94125455 -0.03434519 19.16175842 -0.03910828 C23.81456921 -0.04656813 28.4673041 -0.04628079 33.12011719 -0.04101562 C39.07987551 -0.03522007 45.03932316 -0.05215541 50.99903011 -0.0753603 C55.58441481 -0.09009802 60.16972468 -0.09096929 64.75512886 -0.08785057 C66.95234353 -0.08836372 69.14956239 -0.09360024 71.34675407 -0.10366249 C74.42017641 -0.11601062 77.49299347 -0.10924475 80.56640625 -0.09765625 C81.47205322 -0.10529999 82.3777002 -0.11294373 83.31079102 -0.12081909 C88.36859319 -0.07870677 92.05836897 0.29542948 96.34790039 3.2746582 C100.27417557 7.66214319 99.77878282 12.62526254 99.75195312 18.20214844 C99.75881638 19.19785858 99.76567963 20.19356873 99.77275085 21.2194519 C99.79103685 24.50753073 99.78717866 27.79513324 99.78149414 31.08325195 C99.78605507 33.37101904 99.79136038 35.65878475 99.79737854 37.94654846 C99.80631321 42.7406267 99.80388237 47.53453838 99.79394531 52.32861328 C99.7824555 58.47007023 99.80266604 64.61095223 99.83186245 70.75233364 C99.85021459 75.47670642 99.84993391 80.20094117 99.84422493 84.92534065 C99.84407159 87.18954335 99.85012598 89.45375532 99.8625164 91.71792412 C99.87740538 94.88490673 99.86676388 98.050824 99.84960938 101.21777344 C99.85927734 102.15147263 99.86894531 103.08517181 99.87890625 104.04716492 C99.81610647 109.58808003 99.18030601 112.96238809 95.34790039 117.2746582 C92.48785068 119.01903838 90.35826787 119.52614147 87.0282135 119.53535461 C86.17169693 119.54243942 85.31518036 119.54952423 84.43270874 119.55682373 C83.50116974 119.55434631 82.56963074 119.5518689 81.60986328 119.54931641 C80.62244644 119.55442734 79.6350296 119.55953827 78.61769104 119.56480408 C75.35191801 119.57871028 72.08635577 119.57774255 68.82055664 119.57543945 C66.55138572 119.57932574 64.28221552 119.58366027 62.01304626 119.58842468 C57.2559066 119.59588906 52.49884115 119.59559396 47.74169922 119.59033203 C41.64393297 119.58453635 35.54647035 119.60146994 29.44875431 119.6246767 C24.76218386 119.63940435 20.0756867 119.64028707 15.38909721 119.63716698 C13.14081661 119.63768065 10.89253195 119.64292695 8.64427376 119.6529789 C5.5010921 119.66530731 2.3585041 119.65857297 -0.78466797 119.64697266 C-1.71418274 119.65461639 -2.64369751 119.66226013 -3.60137939 119.6701355 C-8.42517672 119.63076137 -11.79244277 119.49304394 -15.65209961 116.2746582 C-18.16471396 113.40886794 -19.0276728 111.64830255 -19.03977966 107.84107971 C-19.0496843 106.95932068 -19.05958893 106.07756165 -19.0697937 105.16908264 C-19.06529205 104.20949142 -19.06079041 103.24990021 -19.05615234 102.26123047 C-19.06644722 100.73621414 -19.06644722 100.73621414 -19.07695007 99.1803894 C-19.09526261 95.81713932 -19.09137409 92.45435373 -19.08569336 89.09106445 C-19.09025304 86.75463204 -19.09555797 84.41820096 -19.10157776 82.08177185 C-19.11051766 77.18336542 -19.10807567 72.28512194 -19.09814453 67.38671875 C-19.08665448 61.10725591 -19.10686299 54.82835536 -19.13606167 48.54896641 C-19.15440167 43.72340823 -19.15413555 38.89798533 -19.14842415 34.07240105 C-19.14827066 31.75713245 -19.15433748 29.44185485 -19.16671562 27.12661934 C-19.18158156 23.8898802 -19.17098 20.65418673 -19.15380859 17.41748047 C-19.16347656 16.45991348 -19.17314453 15.5023465 -19.18310547 14.51576233 C-19.13718746 10.38544544 -19.01181387 7.90435216 -16.9332428 4.26573181 C-11.71534932 -0.28865568 -6.61693723 -0.01806041 0 0 Z " fill="#34972F" transform="translate(51.652099609375,448.725341796875)"/>
<path d="M0 0 C1.32057655 -0.01279495 1.32057655 -0.01279495 2.66783142 -0.02584839 C3.63101791 -0.02494202 4.59420441 -0.02403564 5.58657837 -0.02310181 C6.60310989 -0.02981903 7.61964142 -0.03653625 8.66697693 -0.04345703 C12.03557185 -0.06249285 15.40396813 -0.06636408 18.77261353 -0.06851196 C21.11047448 -0.07493606 23.44833461 -0.08166412 25.78619385 -0.08868408 C30.6905402 -0.10067087 35.59481605 -0.10436347 40.49917603 -0.10317993 C46.78648882 -0.10297668 53.07334993 -0.13027958 59.36055565 -0.16472435 C64.19038982 -0.18695171 69.02011458 -0.19101874 73.84999466 -0.18996048 C76.16806215 -0.19232269 78.48613238 -0.20118089 80.80414963 -0.21662521 C84.04575051 -0.23620015 87.28636823 -0.23047998 90.52798462 -0.21841431 C91.48712265 -0.22965332 92.44626068 -0.24089233 93.4344635 -0.25247192 C97.56988874 -0.21331724 100.05264181 -0.09443984 103.69659424 1.98529053 C108.2418093 7.19753582 107.98381406 12.29494999 107.97720337 18.90365601 C107.98392059 19.86849915 107.99063782 20.83334229 107.99755859 21.8274231 C108.01653797 25.01320563 108.02046272 28.1987775 108.02261353 31.38461304 C108.02904126 33.60272305 108.0357696 35.8208322 108.04278564 38.03894043 C108.0547581 42.68755051 108.05846647 47.33608628 108.05728149 51.98471069 C108.05707826 57.93547856 108.08438586 63.88576912 108.11882591 69.83642387 C108.14108441 74.41756369 108.14511936 78.99858841 108.14406204 83.57977676 C108.14641936 85.7733843 108.15525023 87.96699495 108.17072678 90.16054916 C108.19036585 93.23150639 108.18455653 96.30143146 108.17251587 99.37240601 C108.18375488 100.2744577 108.1949939 101.1765094 108.20657349 102.105896 C108.1482015 107.97729064 107.203284 111.50407601 103.68667603 116.26742554 C100.84012307 118.05330568 98.66981277 118.51991315 95.33575439 118.53485107 C94.04052605 118.54764603 94.04052605 118.54764603 92.71913147 118.56069946 C91.31015343 118.5593399 91.31015343 118.5593399 89.87271118 118.55795288 C88.37936501 118.56802872 88.37936501 118.56802872 86.85585022 118.57830811 C83.56242898 118.59731693 80.26921122 118.60121376 76.97573853 118.60336304 C74.68654293 118.60978887 72.39734816 118.61651706 70.1081543 118.62353516 C65.30813696 118.63551508 60.50819163 118.63921523 55.7081604 118.63803101 C49.55885408 118.63782776 43.41000961 118.66513302 37.26081276 118.69957542 C32.53216432 118.72181752 27.8036275 118.72586937 23.0749321 118.72481155 C20.80793033 118.72717144 18.54092566 118.73601671 16.27397537 118.75147629 C13.10213159 118.77108153 9.93129 118.76531918 6.75942993 118.75326538 C5.8241597 118.76450439 4.88888947 118.77574341 3.92527771 118.787323 C-1.62210702 118.73377849 -4.99676697 118.10688134 -9.31332397 114.26742554 C-11.05430269 111.41100628 -11.56570232 109.27980609 -11.58074951 105.95446777 C-11.58927948 105.09939636 -11.59780945 104.24432495 -11.6065979 103.36334229 C-11.60569153 102.43337433 -11.60478516 101.50340637 -11.60385132 100.54525757 C-11.61056854 99.55944702 -11.61728577 98.57363647 -11.62420654 97.55795288 C-11.6432144 94.29699675 -11.64711214 91.03624613 -11.64926147 87.77523804 C-11.65568737 85.50846268 -11.66241558 83.24168816 -11.66943359 80.97491455 C-11.68141328 76.22197547 -11.68511369 71.46910912 -11.68392944 66.71615601 C-11.6837262 60.62738194 -11.71103131 54.53907434 -11.74547386 48.45041084 C-11.76771679 43.76808533 -11.77176778 39.08587254 -11.77070999 34.4034996 C-11.77306976 32.15882637 -11.78191436 29.9141502 -11.79737473 27.66952896 C-11.81698166 24.52881499 -11.81121699 21.38911301 -11.79916382 18.24838257 C-11.81040283 17.32246307 -11.82164185 16.39654358 -11.83322144 15.44256592 C-11.77916033 9.89588379 -11.07667587 6.63101836 -7.31332397 2.26742554 C-4.20475103 0.19504357 -3.52509804 0.01544354 0 0 Z " fill="#34972F" transform="translate(325.3133239746094,308.7325744628906)"/>
<path d="M0 0 C0.88175903 -0.00990463 1.76351807 -0.01980927 2.67199707 -0.03001404 C3.63158829 -0.02551239 4.5911795 -0.02101074 5.57984924 -0.01637268 C6.59652679 -0.02323593 7.61320435 -0.03009918 8.66069031 -0.03717041 C12.02394039 -0.05548295 15.38672598 -0.05159443 18.75001526 -0.0459137 C21.08644768 -0.05047338 23.42287875 -0.05577831 25.75930786 -0.0617981 C30.6577143 -0.070738 35.55595777 -0.06829601 40.45436096 -0.05836487 C46.7338238 -0.04687482 53.01272435 -0.06708333 59.2921133 -0.09628201 C64.11767148 -0.114622 68.94309438 -0.11435588 73.76867867 -0.10864449 C76.08394726 -0.108491 78.39922486 -0.11455782 80.71446037 -0.12693596 C83.95119951 -0.1418019 87.18689299 -0.13120034 90.42359924 -0.11402893 C91.38116623 -0.1236969 92.33873322 -0.13336487 93.32531738 -0.14332581 C97.49749979 -0.09694236 99.92790026 0.00966011 103.5753479 2.16903687 C106.5985513 5.53777702 107.81335687 8.17243119 107.83384705 12.70063782 C107.84237701 13.55570923 107.85090698 14.41078064 107.85969543 15.29176331 C107.85878906 16.22173126 107.85788269 17.15169922 107.85694885 18.10984802 C107.86366608 19.09565857 107.8703833 20.08146912 107.87730408 21.09715271 C107.89631193 24.35810884 107.90020968 27.61885946 107.90235901 30.87986755 C107.90878491 33.14664291 107.91551311 35.41341744 107.92253113 37.68019104 C107.93451082 42.43313012 107.93821123 47.18599647 107.93702698 51.93894958 C107.93682373 58.02772365 107.96412885 64.11603125 107.9985714 70.20469475 C108.02081432 74.88702026 108.02486531 79.56923305 108.02380753 84.25160599 C108.0261673 86.49627923 108.03501189 88.74095539 108.05047226 90.98557663 C108.07007919 94.1262906 108.06431452 97.26599258 108.05226135 100.40672302 C108.06350037 101.33264252 108.07473938 102.25856201 108.08631897 103.21253967 C108.03247079 108.73737533 107.38389376 112.08597095 103.56642151 116.38768005 C100.6942767 118.14206245 98.5538322 118.63921288 95.20877075 118.64837646 C94.34384003 118.65546127 93.4789093 118.66254608 92.58776855 118.66984558 C91.64687881 118.66736816 90.70598907 118.66489075 89.73658752 118.66233826 C88.73941711 118.66744919 87.7422467 118.67256012 86.71485901 118.67782593 C83.41662098 118.69173285 80.11859164 118.69076434 76.82032776 118.6884613 C74.52873659 118.69234755 72.23714615 118.69668207 69.94555664 118.70144653 C65.14133876 118.70891106 60.33719436 118.7086157 55.53297424 118.70335388 C49.37467499 118.69755817 43.21667639 118.71449181 37.05842686 118.73769855 C32.32553344 118.75242576 27.59271261 118.75330898 22.85980034 118.75018883 C20.5891911 118.75070252 18.31857785 118.75594924 16.0479908 118.76600075 C12.87367807 118.77832829 9.69995325 118.77159532 6.52565002 118.75999451 C5.58678452 118.76763824 4.64791901 118.77528198 3.68060303 118.78315735 C-4.72269662 118.71523072 -4.72269662 118.71523072 -8.43357849 115.38768005 C-11.95552831 110.31196597 -11.86170552 105.56865923 -11.82176208 99.62205505 C-11.82701904 98.65545959 -11.832276 97.68886414 -11.83769226 96.69297791 C-11.85086261 93.50771274 -11.84216448 90.32295003 -11.83201599 87.13768005 C-11.83403757 84.91860356 -11.83694971 82.69952771 -11.8407135 80.48045349 C-11.84513285 75.83357914 -11.83871819 71.18687799 -11.82469177 66.5400238 C-11.8076003 60.58812167 -11.81744354 54.63662541 -11.83540916 48.68473816 C-11.84625741 44.1036321 -11.84279584 39.52262203 -11.83502579 34.94151306 C-11.83302667 32.74709525 -11.83547291 30.55266869 -11.84246445 28.35826111 C-11.85009586 25.28970809 -11.83845055 22.22180943 -11.82176208 19.15330505 C-11.82783478 18.24922913 -11.83390747 17.3451532 -11.84016418 16.41368103 C-11.78914528 11.34167269 -11.34221791 7.73132506 -8.43357849 3.38768005 C-5.59220592 0.84727208 -3.80009916 0.01208421 0 0 Z " fill="#34972F" transform="translate(184.43357849121094,308.61231994628906)"/>
<path d="M0 0 C0.86348557 -0.00852997 1.72697113 -0.01705994 2.61662292 -0.02584839 C3.55594162 -0.02494202 4.49526031 -0.02403564 5.46304321 -0.02310181 C6.45860733 -0.02981903 7.45417145 -0.03653625 8.47990417 -0.04345703 C11.77332541 -0.06246585 15.06654318 -0.06636268 18.36001587 -0.06851196 C20.64921147 -0.07493779 22.93840624 -0.08166599 25.2276001 -0.08868408 C30.02761743 -0.10066401 34.82756276 -0.10436415 39.62759399 -0.10317993 C45.77690032 -0.10297669 51.92574478 -0.13028194 58.07494164 -0.16472435 C62.80359008 -0.18696644 67.53212689 -0.19101829 72.2608223 -0.18996048 C74.52782407 -0.19232037 76.79482874 -0.20116563 79.06177902 -0.21662521 C82.23362281 -0.23623045 85.40446439 -0.23046811 88.57632446 -0.21841431 C89.5115947 -0.22965332 90.44686493 -0.24089233 91.41047668 -0.25247192 C96.95786142 -0.19892741 100.33252137 0.42796973 104.64907837 4.26742554 C106.39005708 7.1238448 106.90145672 9.25504498 106.91650391 12.5803833 C106.92503387 13.43545471 106.93356384 14.29052612 106.94235229 15.17150879 C106.94144592 16.10147675 106.94053955 17.0314447 106.93960571 17.98959351 C106.94632294 18.97540405 106.95304016 19.9612146 106.95996094 20.97689819 C106.97896879 24.23785432 106.98286654 27.49860495 106.98501587 30.75961304 C106.99144177 33.0263884 106.99816997 35.29316292 107.00518799 37.55993652 C107.01716768 42.3128756 107.02086809 47.06574196 107.01968384 51.81869507 C107.01948059 57.90746913 107.04678571 63.99577673 107.08122826 70.08444023 C107.10347118 74.76676574 107.10752217 79.44897853 107.10646439 84.13135147 C107.10882416 86.37602471 107.11766875 88.62070088 107.13312912 90.86532211 C107.15273605 94.00603608 107.14697138 97.14573806 107.13491821 100.28646851 C107.14615723 101.212388 107.15739624 102.1383075 107.16897583 103.09228516 C107.11491473 108.63896729 106.41243027 111.90383272 102.64907837 116.26742554 C99.54050542 118.3398075 98.86085243 118.51940753 95.33575439 118.53485107 C94.45537003 118.54338104 93.57498566 118.55191101 92.66792297 118.56069946 C91.70473648 118.55979309 90.74154999 118.55888672 89.74917603 118.55795288 C88.7326445 118.5646701 87.71611298 118.57138733 86.66877747 118.57830811 C83.30018254 118.59734393 79.93178627 118.60121515 76.56314087 118.60336304 C74.22527992 118.60978713 71.88741978 118.6165152 69.54956055 118.62353516 C64.64521419 118.63552195 59.74093835 118.63921454 54.83657837 118.63803101 C48.54926557 118.63782775 42.26240446 118.66513065 35.97519875 118.69957542 C31.14536458 118.72180278 26.31563982 118.72586982 21.48575974 118.72481155 C19.16769224 118.72717376 16.84962201 118.73603196 14.53160477 118.75147629 C11.29000389 118.77105122 8.04938617 118.76533105 4.80776978 118.75326538 C3.84863174 118.76450439 2.88949371 118.77574341 1.90129089 118.787323 C-2.23413434 118.74816832 -4.71688742 118.62929091 -8.36083984 116.54956055 C-12.90605491 111.33731526 -12.64805966 106.23990109 -12.64144897 99.63119507 C-12.6481662 98.66635193 -12.65488342 97.70150879 -12.6618042 96.70742798 C-12.68078357 93.52164544 -12.68470832 90.33607357 -12.68685913 87.15023804 C-12.69328686 84.93212803 -12.7000152 82.71401887 -12.70703125 80.49591064 C-12.7190037 75.84730056 -12.72271208 71.19876479 -12.7215271 66.55014038 C-12.72132386 60.59937251 -12.74863146 54.64908195 -12.78307152 48.6984272 C-12.80533002 44.11728739 -12.80936496 39.53626266 -12.80830765 34.95507431 C-12.81066497 32.76146677 -12.81949584 30.56785612 -12.83497238 28.37430191 C-12.85461145 25.30334468 -12.84880213 22.23341962 -12.83676147 19.16244507 C-12.84800049 18.26039337 -12.8592395 17.35834167 -12.87081909 16.42895508 C-12.81244711 10.55756044 -11.86752961 7.03077507 -8.35092163 2.26742554 C-5.50436868 0.48154539 -3.33405838 0.01493793 0 0 Z " fill="#34972F" transform="translate(185.35092163085938,167.73257446289063)"/>
<path d="M0 0 C0.86915039 -0.00860046 1.73830078 -0.01720093 2.63378906 -0.02606201 C3.58964905 -0.03032196 4.54550903 -0.03458191 5.53033447 -0.03897095 C6.53536011 -0.04714844 7.54038574 -0.05532593 8.5758667 -0.06375122 C11.9125712 -0.08862924 15.24923308 -0.10512764 18.58599854 -0.11953735 C20.29309368 -0.12752287 20.29309368 -0.12752287 22.0346756 -0.13566971 C28.05861234 -0.16241205 34.08252827 -0.1817833 40.10650635 -0.19619751 C46.33215107 -0.21284579 52.55726647 -0.25762263 58.78271103 -0.30856895 C63.56624975 -0.34220858 68.34966236 -0.35377142 73.13330841 -0.35942459 C75.42824599 -0.36614635 77.72317501 -0.38139224 80.01799774 -0.4053154 C83.23088319 -0.43689738 86.44233486 -0.43701361 89.65533447 -0.42959595 C91.07697906 -0.45420395 91.07697906 -0.45420395 92.52734375 -0.47930908 C96.93792631 -0.43763699 99.91852772 -0.26468671 103.4263916 2.56536865 C106.41214679 5.75216544 106.97450698 7.08699661 107.00552368 11.30227661 C107.01412415 12.171427 107.02272461 13.04057739 107.03158569 13.93606567 C107.03584564 14.89192566 107.04010559 15.84778564 107.04449463 16.83261108 C107.05676086 18.34014954 107.05676086 18.34014954 107.0692749 19.87814331 C107.09415292 23.21484781 107.11065133 26.55150969 107.12506104 29.88827515 C107.13038471 31.02633858 107.13570839 32.16440201 107.14119339 33.33695221 C107.16793573 39.36088895 107.18730698 45.38480488 107.20172119 51.40878296 C107.21836947 57.63442768 107.26314631 63.85954308 107.31409264 70.08498764 C107.34773226 74.86852636 107.3592951 79.65193897 107.36494827 84.43558502 C107.37167003 86.7305226 107.38691592 89.02545162 107.41083908 91.32027435 C107.44242106 94.5331598 107.44253729 97.74461147 107.43511963 100.95761108 C107.45152496 101.90537415 107.4679303 102.85313721 107.48483276 103.82962036 C107.44316067 108.24020292 107.2702104 111.22080434 104.44015503 114.72866821 C101.24771278 117.71971272 99.91932569 118.27778321 95.69651794 118.29434204 C94.82592239 118.30005219 93.95532684 118.30576233 93.05834961 118.31164551 C92.10091858 118.31276337 91.14348755 118.31388123 90.15704346 118.31503296 C89.15041153 118.31999786 88.1437796 118.32496277 87.10664368 118.33007812 C83.76511968 118.34472404 80.42364316 118.35150597 77.08209229 118.35702515 C74.76522317 118.36277481 72.44835407 118.36853257 70.13148499 118.3742981 C65.26825742 118.38481515 60.40504642 118.39065313 55.54180908 118.39413452 C49.3072453 118.39961921 43.07289993 118.42364391 36.83840466 118.45210648 C32.05061705 118.47072201 27.26288215 118.47593789 22.47506142 118.4774704 C20.17653523 118.48050015 17.87801004 118.48853947 15.57951927 118.50165558 C12.3643059 118.51869228 9.14962729 118.51684138 5.93438721 118.51034546 C4.98302887 118.51956024 4.03167053 118.52877502 3.05148315 118.53826904 C-1.81341553 118.50744803 -5.24993571 118.40820194 -9.14837646 115.15390015 C-11.21806558 112.04936647 -11.40109717 111.36738213 -11.42253113 107.8473053 C-11.43250626 106.96836609 -11.44248138 106.08942688 -11.45275879 105.18385315 C-11.45342346 104.2222377 -11.45408813 103.26062225 -11.45477295 102.26986694 C-11.46309647 101.25494171 -11.47141998 100.24001648 -11.47999573 99.19433594 C-11.50414158 95.83055818 -11.5128738 92.4669742 -11.51947021 89.1031189 C-11.52843351 86.76765381 -11.5375553 84.43218933 -11.54682922 82.09672546 C-11.56333458 77.19658003 -11.57102208 72.29650304 -11.57391357 67.39633179 C-11.57929686 61.11799673 -11.6169689 54.84030524 -11.66265774 48.56215191 C-11.69240493 43.73656365 -11.69963664 38.91113074 -11.70063972 34.08545876 C-11.70484715 31.77099474 -11.71730223 29.45653048 -11.73815727 27.1421566 C-11.76501995 23.90299613 -11.76026036 20.66533202 -11.7477417 17.42611694 C-11.76257599 16.47057419 -11.77741028 15.51503143 -11.79269409 14.53053284 C-11.74399842 10.10467677 -11.57618448 7.095139 -8.73591614 3.5743866 C-5.54926003 0.59346305 -4.21249572 0.03099622 0 0 Z " fill="#34982F" transform="translate(44.14837646484375,167.84609985351563)"/>
<path d="M0 0 C0.87189972 -0.00997513 1.74379944 -0.01995026 2.64212036 -0.03022766 C4.06512451 -0.03122467 4.06512451 -0.03122467 5.51687622 -0.03224182 C6.52219391 -0.04056534 7.5275116 -0.04888885 8.56329346 -0.0574646 C11.88916894 -0.08157525 15.21484837 -0.09033784 18.540802 -0.09693909 C20.8524176 -0.10590416 23.16403259 -0.11502598 25.47564697 -0.1242981 C30.32273774 -0.14079324 35.16975939 -0.14848926 40.01687622 -0.15138245 C46.22680403 -0.1567686 52.43608209 -0.19445682 58.64582634 -0.24012661 C63.42080049 -0.26987238 68.19561766 -0.27710546 72.97067642 -0.2781086 C75.26002098 -0.28231532 77.54936583 -0.29476757 79.83861923 -0.31562614 C83.04175334 -0.34248956 86.24337439 -0.3377294 89.44656372 -0.32521057 C90.86349518 -0.34746201 90.86349518 -0.34746201 92.30905151 -0.37016296 C96.71160719 -0.32117944 99.68321878 -0.13771885 103.18389893 2.68661499 C106.17231851 5.8724277 106.73399182 7.20641898 106.76501465 11.42253113 C106.77361511 12.29168152 106.78221558 13.16083191 106.79107666 14.05632019 C106.79533661 15.01218018 106.79959656 15.96804016 106.8039856 16.9528656 C106.81625183 18.46040405 106.81625183 18.46040405 106.82876587 19.99839783 C106.85364389 23.33510232 106.87014229 26.6717642 106.884552 30.00852966 C106.88987568 31.14659309 106.89519936 32.28465652 106.90068436 33.45720673 C106.92742669 39.48114346 106.94679795 45.5050594 106.96121216 51.52903748 C106.97786044 57.7546822 107.02263728 63.9797976 107.0735836 70.20524216 C107.10722323 74.98878088 107.11878607 79.77219349 107.12443924 84.55583954 C107.131161 86.85077712 107.14640689 89.14570614 107.17033005 91.44052887 C107.20191203 94.65341432 107.20202826 97.86486599 107.1946106 101.0778656 C107.21101593 102.02562866 107.22742126 102.97339172 107.24432373 103.94987488 C107.20265164 108.36045744 107.02970136 111.34105885 104.199646 114.84892273 C101.0128492 117.83467792 99.67801804 118.3970381 95.46273804 118.42805481 C94.15901245 118.44095551 94.15901245 118.44095551 92.82894897 118.45411682 C91.87308899 118.45837677 90.917229 118.46263672 89.93240356 118.46702576 C88.92737793 118.47520325 87.92235229 118.48338074 86.88687134 118.49180603 C83.55016684 118.51668405 80.21350496 118.53318245 76.8767395 118.54759216 C75.73867607 118.55291584 74.60061264 118.55823952 73.42806244 118.56372452 C67.4041257 118.59046686 61.38020976 118.60983811 55.35623169 118.62425232 C49.13058697 118.6409006 42.90547157 118.68567744 36.68002701 118.73662376 C31.89648829 118.77026339 27.11307567 118.78182623 22.32942963 118.7874794 C20.03449205 118.79420116 17.73956303 118.80944705 15.4447403 118.83337021 C12.23185485 118.86495219 9.02040318 118.86506842 5.80740356 118.85765076 C4.8596405 118.87405609 3.91187744 118.89046143 2.93539429 118.90736389 C-1.47518827 118.8656918 -4.45578969 118.69274152 -7.96365356 115.86268616 C-10.95469807 112.6702439 -11.51276856 111.34185682 -11.52932739 107.11904907 C-11.53503754 106.24845352 -11.54074768 105.37785797 -11.54663086 104.48088074 C-11.54774872 103.52344971 -11.54886658 102.56601868 -11.55001831 101.57957458 C-11.55498322 100.57294266 -11.55994812 99.56631073 -11.56506348 98.5291748 C-11.57970939 95.1876508 -11.58649132 91.84617428 -11.5920105 88.50462341 C-11.59776017 86.18775429 -11.60351792 83.87088519 -11.60928345 81.55401611 C-11.6198005 76.69078855 -11.62563849 71.82757755 -11.62911987 66.96434021 C-11.63460456 60.72977643 -11.65862926 54.49543106 -11.68709183 48.26093578 C-11.70570736 43.47314818 -11.71092325 38.68541328 -11.71245575 33.89759254 C-11.7154855 31.59906636 -11.72352482 29.30054116 -11.73664093 27.0020504 C-11.75367763 23.78683703 -11.75182673 20.57215842 -11.74533081 17.35691833 C-11.75454559 16.40556 -11.76376038 15.45420166 -11.77325439 14.47401428 C-11.74264066 9.64183314 -11.69960867 6.09671421 -8.3888855 2.27415466 C-5.50361222 0.5314481 -3.35137143 0.0206308 0 0 Z " fill="#34982F" transform="translate(44.388885498046875,308.72584533691406)"/>
<path d="M0 0 C12.21484498 10.59579337 20.74333391 25.41681474 22.49121094 41.62963867 C22.62308391 44.4686258 22.65537572 47.28318305 22.625 50.125 C22.61364014 51.62885254 22.61364014 51.62885254 22.60205078 53.16308594 C22.21648701 70.6175862 15.30370545 85.25812989 3.1875 97.8125 C-10.81621224 109.83030568 -27.41003731 115.73610184 -45.796875 115.1953125 C-63.58292411 113.8131122 -79.47055639 106.06136003 -91.5625 92.9375 C-102.91624009 79.23286784 -107.98546724 62.53179236 -106.8125 44.8125 C-105.19215995 27.87880541 -97.97435018 12.9207694 -85.6796875 1.16796875 C-60.62307227 -19.41668927 -25.59289481 -19.69509084 0 0 Z " fill="#C80B0E" transform="translate(134.8125,36.1875)"/>
</svg>
